<?xml version="1.0" encoding="utf-8"?>
<!-- Generator: Adobe Illustrator 16.0.3, SVG Export Plug-In . SVG Version: 6.00 Build 0)  -->
<!DOCTYPE svg PUBLIC "-//W3C//DTD SVG 1.1//EN" "http://www.w3.org/Graphics/SVG/1.1/DTD/svg11.dtd">
<svg version="1.1" id="Layer_2" xmlns="http://www.w3.org/2000/svg" xmlns:xlink="http://www.w3.org/1999/xlink" x="0px" y="0px"
	 width="100%" height="100%" viewBox="0 0 97.667 111.667" enable-background="new 0 0 97.667 111.667"
	 xml:space="preserve" fill='#ff0000'>
<g>
	<path d="M7.963,28.726l0.248,71.022c0,5.464,4.967,10.927,10.43,10.927h60.841c5.836,0,10.43-4.843,10.43-10.306V28.726H7.963z
		 M31.927,93.23c0,1.817-1.473,3.29-3.291,3.29c-1.817,0-3.29-1.473-3.29-3.29V45.799c0-1.817,1.473-3.291,3.29-3.291
		c1.817,0,3.291,1.473,3.291,3.291V93.23z M52.477,93.23c0,1.817-1.474,3.29-3.291,3.29c-1.817,0-3.29-1.473-3.29-3.29V45.799
		c0-1.817,1.473-3.291,3.29-3.291c1.817,0,3.291,1.473,3.291,3.291V93.23z M72.715,93.23c0,1.817-1.473,3.29-3.29,3.29
		s-3.29-1.473-3.29-3.29V45.799c0-1.817,1.473-3.291,3.29-3.291s3.29,1.473,3.29,3.291V93.23z"/>
	<path d="M92.147,7.866H68.035c-1.714-2.485-3.57-6.208-5.998-6.208H35.341c-2.469,0-4.222,3.725-5.587,6.208H5.728
		c-2.468,0-4.47,2.001-4.47,4.47v5.215c0,2.469,2.001,4.47,4.47,4.47h86.42c2.469,0,4.47-2.001,4.47-4.47v-5.215
		C96.617,9.867,94.616,7.866,92.147,7.866z"/>
</g>
</svg>
