<?xml version="1.0" encoding="utf-8"?>
<!-- Generator: Adobe Illustrator 16.0.3, SVG Export Plug-In . SVG Version: 6.00 Build 0)  -->
<!DOCTYPE svg PUBLIC "-//W3C//DTD SVG 1.1//EN" "http://www.w3.org/Graphics/SVG/1.1/DTD/svg11.dtd">
<svg version="1.1" id="Layer_1" xmlns="http://www.w3.org/2000/svg" xmlns:xlink="http://www.w3.org/1999/xlink" x="0px" y="0px"
	 width="100%" height="100%" viewBox="0 0 266 238" enable-background="new 0 0 266 238" xml:space="preserve">
<path fill="#010101" d="M229.787,187.341c0.195-0.363,0.306-0.754,0.306-1.177l2.527-13.479c0-4.187-3.956-9.547-8.144-9.547
	H102.891c-0.321,0-0.635,0.026-0.945,0.065l-3.112-15.227h133.227c4.188,0,8.846-4.056,8.846-9.059l21.27-93.081
	c0-5.002-3.721-11.867-11.161-11.584H75.588l-4.456-21.798C70.838,8.482,66.77,5.33,62.737,5.33H14.158
	c-4.187,0-9.334,3.395-9.334,7.582v12.355c0,4.188,5.147,8.003,9.334,8.003L46.286,33l31.75,155.33
	c-7.22,4.245-12.07,12.089-12.07,21.07c0,13.492,10.938,24.43,24.43,24.43c13.492,0,24.429-10.938,24.429-24.43
	c0-7.217-3.131-13.7-8.106-18.172l95.979,0.239c-4.823,4.463-7.846,10.844-7.846,17.933c0,13.492,10.938,24.43,24.43,24.43
	s24.43-10.938,24.43-24.43C243.712,199.669,238.021,191.269,229.787,187.341z"/>
</svg>
